<svg width="35" height="36" viewBox="0 0 35 36" fill="none" xmlns="http://www.w3.org/2000/svg">
<g clip-path="url(#clip0_1_54)">
<path fill-rule="evenodd" clip-rule="evenodd" d="M22.0541 17.9262H20.6384V31.6659H22.0541V17.9262ZM7.6241 0.142032L14.8627 2.71828L15.0855 2.05664C15.093 2.03414 15.1012 2.01164 15.1115 1.99055C15.3637 1.34016 16.0193 0.952735 16.6892 1.05188C16.8642 1.07789 17.0139 1.13555 17.1787 1.19461L21.3466 2.6782C21.4026 2.69789 21.4573 2.71547 21.5106 2.74219C21.8599 2.88844 22.1306 3.15984 22.2844 3.4868C22.4355 3.80742 22.4759 4.185 22.3774 4.55063C22.3658 4.59352 22.3535 4.63852 22.3398 4.6793L22.13 5.30438L29.441 7.90664C29.5387 7.94109 29.6098 7.96852 29.7035 8.01985C30.1724 8.2793 30.411 8.82492 30.2798 9.35789C30.2654 9.41555 30.2497 9.46969 30.2305 9.52524L29.4095 11.9658C29.2954 12.3068 28.9331 12.4868 28.6022 12.3694L27.2617 11.892C27.5258 12.5208 27.6777 13.1934 27.7101 13.8776C27.7935 13.9324 27.8708 13.9957 27.9398 14.066C28.1804 14.31 28.337 14.6384 28.3452 15.004C28.3466 15.0813 28.3377 15.1594 28.3308 15.236L26.5849 34.5037C26.5624 34.7569 26.5214 34.9819 26.3969 35.2195C26.1563 35.6801 25.7113 36 25.1569 36H8.00213C7.63845 36 7.3739 35.967 7.06765 35.7518C6.70672 35.498 6.47019 35.0698 6.42849 34.5945L4.69353 15.1805C4.68806 15.1193 4.68259 15.0525 4.68464 14.992C4.69695 14.6299 4.85144 14.3058 5.0907 14.0646C5.28074 13.8727 5.53162 13.7313 5.80369 13.6702C5.7907 13.602 5.78318 13.5323 5.78318 13.4599V8.79399C5.78318 8.2132 6.24529 7.73789 6.80994 7.73789H12.2049C12.7688 7.73789 13.2309 8.2132 13.2309 8.79399V10.3725C14.0779 9.65742 15.1614 9.22781 16.3427 9.22781C17.1158 9.22692 17.8781 9.41463 18.5671 9.77555C18.8528 9.52945 19.1625 9.31148 19.4927 9.12727L5.43113 4.12242C5.09959 4.0043 4.9239 3.63234 5.03806 3.29133L5.04285 3.27727L5.81463 0.98297C6.13797 0.0225008 6.72107 -0.179999 7.6241 0.142032ZM17.4508 17.9262H16.0344V31.6659H17.4508V17.9262ZM12.8474 17.9262H11.4317V31.6659H12.8474V17.9262ZM26.8987 14.9393H6.1448C6.00877 14.9393 5.94382 14.9632 5.95681 15.1116L7.67332 34.3209C7.68425 34.4398 7.6822 34.6957 7.84627 34.6929H25.1583C25.3005 34.6929 25.3169 34.4869 25.3264 34.3807L27.0744 15.0989C27.0853 14.9745 27.0135 14.9393 26.8987 14.9393ZM11.5349 13.2602H12.2049V9.58148C12.2049 9.16102 11.8699 8.81719 11.4611 8.81719H7.553C7.14422 8.81719 6.80994 9.16102 6.80994 9.58148V13.2602H11.5349ZM18.3791 13.4318H25.915C25.7428 12.3595 25.148 11.4349 24.3127 10.8429L24.3024 10.8352L24.2867 10.8246L24.2607 10.8063L24.2347 10.7888L24.2334 10.788L24.2081 10.7705L24.1814 10.7536L24.1636 10.7416L24.1548 10.736L24.1274 10.7191L24.1008 10.7023L24.0932 10.698L24.0734 10.6861L24.0461 10.6699L24.0215 10.6552L24.0187 10.6538L23.9914 10.6376L23.9634 10.6221L23.9353 10.6066L23.9073 10.5919L23.8793 10.5764L23.8752 10.5743L23.8512 10.5623L23.8225 10.5476L23.8007 10.5363L23.7945 10.5335L23.7658 10.5195L23.7364 10.5054L23.7255 10.5005L23.7077 10.492L23.6783 10.4787L23.6496 10.466L23.6489 10.4653L23.6202 10.4534L23.5717 10.433L23.5607 10.4288L23.5033 10.4055L23.5019 10.4048L23.4937 10.4013L23.4719 10.3929L23.4418 10.3816L23.4144 10.3718L23.4117 10.3711L23.3809 10.3598L23.3509 10.3493L23.3344 10.3444L23.3201 10.3395L23.2893 10.3289L23.2586 10.3198L23.2545 10.3184L23.2278 10.3099L23.197 10.3008L23.1731 10.2937L23.1656 10.2916L23.1348 10.2832L23.1034 10.2748L23.0911 10.2713L23.0719 10.2663L23.0405 10.2586L23.0091 10.2509H23.0084L22.9769 10.2438L22.925 10.2319L22.9134 10.2298L22.8819 10.2234L22.8491 10.2171L22.8409 10.215L22.8177 10.2108L22.7848 10.2052L22.7561 10.2002L22.7527 10.1995L22.7199 10.1946L22.6878 10.1897L22.6714 10.1869L22.655 10.1848L22.6221 10.1805L22.5893 10.177L22.5852 10.1763L22.5565 10.1728L22.5237 10.1693L22.4984 10.1672L22.4909 10.1665L22.4574 10.1637L22.4246 10.1609L22.4116 10.1602L22.3911 10.1588C22.3104 10.1531 22.2291 10.1503 22.147 10.1503C20.2665 10.1503 18.699 11.5376 18.3791 13.4318Z" fill="white"/>
</g>
<defs>
<clipPath id="clip0_1_54">
<rect width="35" height="36" fill="white"/>
</clipPath>
</defs>
</svg>
